<?xml version="1.0" standalone="no"?>
<!DOCTYPE svg PUBLIC "-//W3C//DTD SVG 20010904//EN"
 "http://www.w3.org/TR/2001/REC-SVG-20010904/DTD/svg10.dtd">
<svg version="1.0" xmlns="http://www.w3.org/2000/svg"
 width="500.000000pt" height="503.000000pt" viewBox="0 0 500.000000 503.000000"
 preserveAspectRatio="xMidYMid meet">

<g transform="translate(0.000000,503.000000) scale(0.100000,-0.100000)"
fill="#000000" stroke="none">
<path d="M2716 4038 c-32 -46 -14 -100 54 -162 23 -21 40 -38 38 -39 -1 -1
-36 -24 -76 -51 -122 -82 -197 -181 -243 -321 -20 -62 -23 -92 -24 -265 -2
-150 -6 -209 -19 -256 l-18 -60 -146 -14 c-213 -19 -195 -21 -202 22 -7 41
-46 91 -105 133 -31 23 -53 30 -101 33 -69 5 -227 -14 -257 -29 -35 -19 -47
-71 -47 -203 l0 -124 -87 -49 c-112 -61 -213 -158 -250 -240 -34 -73 -39 -159
-24 -374 20 -290 62 -502 140 -699 45 -116 137 -275 206 -356 25 -29 45 -55
45 -58 0 -3 -15 -26 -32 -51 -28 -40 -33 -56 -36 -119 -3 -58 0 -83 16 -119
79 -178 334 -290 767 -337 181 -19 574 -30 754 -20 377 21 551 63 717 171 33
21 67 50 74 64 7 14 21 27 31 30 26 9 59 96 59 158 0 66 -14 109 -51 161 -26
36 -27 41 -13 57 8 9 38 20 67 23 123 16 230 62 383 164 181 122 321 301 359
463 19 84 19 274 0 358 -44 187 -215 369 -402 428 -42 13 -54 22 -63 46 -18
52 -85 132 -160 188 -55 42 -70 59 -66 74 43 187 47 333 16 512 -12 64 -36
156 -54 204 l-33 88 29 27 c79 76 -21 224 -115 170 l-29 -16 -68 64 c-38 35
-98 81 -135 101 -65 37 -227 95 -264 95 -10 0 -39 16 -65 36 -77 59 -171 96
-254 102 -64 4 -76 2 -95 -16 l-23 -21 -49 24 c-64 33 -128 34 -149 3z m140
-44 c31 -15 69 -46 94 -75 75 -89 206 -132 293 -95 55 22 38 36 -36 29 -90 -8
-142 9 -199 67 -79 78 -57 114 56 90 69 -14 159 -58 213 -105 23 -19 52 -35
65 -35 44 0 173 -41 243 -78 70 -37 195 -144 195 -167 0 -6 -71 -75 -157 -153
-237 -211 -263 -237 -263 -259 0 -12 -16 -33 -37 -49 -21 -16 -68 -60 -106
-99 -61 -63 -68 -68 -78 -51 -29 48 -66 67 -161 82 -31 5 -38 3 -38 -9 0 -15
15 -21 103 -43 33 -8 67 -48 67 -81 0 -13 -11 -34 -25 -47 -25 -24 -26 -24
-319 -25 l-293 -2 13 53 c9 34 14 111 14 221 0 118 5 190 16 240 38 171 133
297 285 381 58 32 69 35 100 26 46 -14 111 -3 107 17 -2 12 -18 16 -68 17 -51
2 -74 8 -106 28 -71 46 -114 115 -87 141 13 14 58 6 109 -19z m1075 -373 c33
-33 37 -70 12 -98 -10 -11 -47 -44 -83 -74 -35 -30 -138 -118 -227 -197 -179
-156 -178 -156 -223 -92 -26 37 -20 60 24 97 18 16 120 107 227 204 179 162
209 186 232 188 5 1 22 -12 38 -28z m13 -303 c47 -150 59 -220 59 -363 0 -114
-21 -257 -41 -277 -5 -5 -37 5 -73 21 -79 36 -189 73 -300 101 -95 25 -288 60
-328 60 -48 0 -53 14 -16 43 l34 27 34 -30 c34 -29 67 -40 67 -20 0 5 -27 36
-60 68 -67 64 -76 96 -39 133 32 32 89 21 149 -30 27 -23 53 -41 59 -41 18 0
13 38 -6 50 -14 9 -15 12 -4 17 14 6 53 38 146 123 28 25 84 74 125 110 41 36
88 77 105 92 16 15 35 28 42 28 6 0 27 -51 47 -112z m-564 -178 c0 -5 -4 -10
-10 -10 -5 0 -10 5 -10 10 0 6 5 10 10 10 6 0 10 -4 10 -10z m-1456 -115 c18
-9 54 -38 82 -66 l49 -50 -3 -127 c-2 -87 -7 -131 -15 -140 -14 -14 -33 -19
-122 -32 -162 -24 -198 -19 -264 37 -33 29 -34 29 -17 60 17 34 7 53 -14 27
-21 -25 -30 2 -30 96 0 104 13 153 45 174 14 9 63 19 117 24 136 13 137 13
172 -3z m1315 -42 c12 -27 10 -30 -63 -95 -90 -83 -129 -144 -157 -246 -24
-85 -50 -145 -79 -180 -25 -31 -145 -53 -293 -54 -123 -2 -127 0 -127 72 1
138 129 253 341 306 57 14 124 36 149 49 25 12 62 30 83 39 24 10 41 26 48 43
10 27 66 93 79 93 4 0 12 -12 19 -27z m-319 -143 c-121 -41 -224 -59 -365 -64
-137 -6 -210 -12 -365 -32 -45 -5 -53 -4 -42 7 13 14 17 49 5 49 -5 0 -19 -12
-32 -25 -13 -14 -27 -25 -32 -25 -12 0 -11 47 1 55 10 6 208 29 320 38 99 8
534 5 510 -3z m406 -29 c447 -66 761 -216 856 -409 29 -59 33 -78 37 -167 7
-187 -31 -525 -80 -717 -96 -379 -307 -662 -605 -811 -235 -118 -569 -172
-912 -148 -436 30 -735 146 -960 372 -274 275 -412 691 -416 1249 -1 150 1
169 21 212 39 85 127 166 256 236 67 37 67 37 67 17 0 -8 -4 -15 -10 -15 -5 0
-10 -7 -10 -16 0 -10 7 -14 23 -12 12 2 21 9 20 16 -3 14 -1 14 21 6 26 -10
19 -22 -25 -44 -159 -81 -251 -211 -234 -328 8 -56 46 -136 83 -176 70 -74
226 -163 365 -207 262 -84 541 -119 937 -120 795 0 1325 207 1324 517 -1 191
-203 344 -580 438 -68 18 -314 56 -356 56 -34 0 -36 16 -6 47 26 28 21 28 184
4z m-816 -212 c0 -6 -4 -7 -10 -4 -5 3 -10 11 -10 16 0 6 5 7 10 4 6 -3 10
-11 10 -16z m596 1 c13 0 25 4 29 10 9 14 37 0 31 -16 -3 -9 2 -14 13 -14 11
0 21 -5 23 -12 3 -8 12 -9 36 0 33 11 62 7 62 -9 0 -5 14 -6 32 -2 27 5 30 4
25 -11 -4 -9 -3 -14 2 -11 5 3 12 1 15 -4 3 -5 -15 -11 -42 -13 -26 -2 -48 0
-50 4 -2 4 -8 8 -13 8 -6 0 -8 -4 -5 -9 3 -4 -12 -13 -34 -20 -46 -14 -59 -33
-67 -101 -5 -44 -7 -48 -19 -33 -7 11 -9 20 -3 24 7 4 4 19 -5 40 l-16 34 6
-35 c3 -24 2 -31 -4 -21 -14 20 -34 -17 -21 -41 9 -17 3 -18 -69 -18 -49 0
-94 -6 -117 -16 -27 -11 -35 -12 -29 -2 4 7 -2 5 -13 -4 -24 -22 -33 -23 -33
-3 0 8 5 15 12 15 6 0 9 2 6 5 -3 3 -18 -1 -34 -10 -17 -9 -22 -15 -13 -15 29
0 28 -26 -1 -43 -34 -21 -51 -80 -43 -154 4 -36 2 -53 -6 -53 -6 0 -11 6 -11
13 0 8 -3 8 -8 2 -8 -13 -240 -2 -317 15 -27 6 -68 13 -90 17 -22 3 -45 10
-51 15 -7 5 -36 12 -65 15 -31 4 -62 14 -73 25 -11 10 -27 18 -35 18 -58 0
-161 113 -161 176 0 35 48 104 74 105 11 0 15 3 8 6 -16 6 3 33 24 33 7 0 37
11 66 24 108 48 358 95 358 67 0 -5 -3 -11 -7 -14 -5 -2 -3 -3 4 -1 18 4 23
-7 12 -27 -5 -10 -10 -45 -10 -77 l-1 -59 -40 10 c-22 5 -42 16 -44 23 -2 8
-6 21 -9 29 -6 20 -32 9 -39 -17 -7 -29 10 -57 40 -64 18 -5 22 -10 15 -17 -6
-6 -11 -16 -11 -22 0 -5 5 -2 11 8 11 18 44 23 54 7 9 -15 360 -4 425 13 81
22 102 32 130 63 14 15 19 24 11 19 -9 -5 -12 -3 -9 6 3 8 11 13 17 11 9 -2 9
3 0 19 -6 12 -7 19 -1 15 5 -3 10 4 10 17 0 12 5 35 11 51 9 22 15 26 23 18 7
-7 22 -12 34 -12z m121 -26 c-9 -9 -28 6 -21 18 4 6 10 6 17 -1 6 -6 8 -13 4
-17z m342 -115 c67 -34 81 -54 81 -118 0 -29 -6 -43 -22 -54 l-23 -16 23 0
c19 -1 22 -6 22 -42 0 -22 -5 -49 -10 -59 -16 -30 -101 -50 -214 -50 l-101 0
-3 52 c-5 79 -35 125 -97 145 -29 10 -30 12 -27 64 2 34 9 60 20 71 21 21 100
35 208 37 72 1 88 -2 143 -30z m-421 -153 c130 -23 161 -71 146 -224 l-9 -87
-70 -18 c-57 -15 -93 -17 -195 -13 -117 6 -194 17 -207 30 -3 3 -8 48 -11 100
-6 117 5 147 63 182 74 43 160 52 283 30z m1212 -23 c92 -45 202 -152 248
-239 50 -95 65 -178 59 -324 -5 -142 -22 -201 -87 -311 -102 -172 -372 -367
-571 -414 -35 -8 -65 -13 -67 -11 -1 2 18 33 43 69 25 36 63 103 85 149 35 75
44 86 91 112 83 46 184 148 221 224 31 63 33 72 33 182 0 104 -3 120 -27 173
-15 32 -49 79 -78 107 l-50 49 0 135 c0 108 3 136 14 136 7 0 46 -16 86 -37z
m-56 -335 c57 -67 79 -136 74 -243 -4 -105 -28 -163 -93 -234 -43 -47 -131
-121 -145 -121 -4 0 3 34 16 76 34 107 71 298 85 442 6 67 15 122 20 122 4 0
24 -19 43 -42z m-2611 -1108 c137 -119 314 -209 523 -263 290 -77 688 -87 984
-26 233 48 449 148 588 274 l53 48 17 -24 c48 -68 60 -124 42 -201 -36 -147
-285 -273 -615 -310 -182 -20 -766 -17 -964 5 -243 28 -396 65 -537 132 -188
90 -262 244 -180 373 30 47 25 48 89 -8z"/>
<path d="M2970 3386 c0 -38 -4 -48 -25 -62 -28 -18 -33 -44 -10 -44 9 0 26 7
38 15 19 12 29 13 55 3 24 -9 35 -9 43 -1 9 9 3 17 -22 32 -27 16 -35 29 -39
58 -3 26 -11 39 -22 41 -15 3 -18 -4 -18 -42z"/>
<path d="M3300 3364 c-24 -43 18 -87 64 -66 28 13 36 58 14 80 -22 22 -63 14
-78 -14z"/>
<path d="M2646 3344 c-9 -8 -16 -24 -16 -34 0 -10 7 -26 16 -34 8 -9 24 -16
34 -16 10 0 26 7 34 16 9 8 16 24 16 34 0 10 -7 26 -16 34 -8 9 -24 16 -34 16
-10 0 -26 -7 -34 -16z"/>
<path d="M1995 2790 c-8 -13 3 -30 20 -30 14 0 27 24 18 34 -10 9 -31 7 -38
-4z"/>
<path d="M1762 2773 c2 -10 10 -18 18 -18 8 0 16 8 18 18 2 12 -3 17 -18 17
-15 0 -20 -5 -18 -17z"/>
<path d="M1840 2749 c0 -21 87 -25 115 -6 16 12 10 14 -48 13 -37 -1 -67 -4
-67 -7z"/>
<path d="M3102 2570 c0 -14 2 -19 5 -12 2 6 2 18 0 25 -3 6 -5 1 -5 -13z"/>
<path d="M3055 2560 c-3 -5 1 -10 10 -10 9 0 13 5 10 10 -3 6 -8 10 -10 10 -2
0 -7 -4 -10 -10z"/>
<path d="M3130 2540 c0 -5 5 -10 10 -10 6 0 10 5 10 10 0 6 -4 10 -10 10 -5 0
-10 -4 -10 -10z"/>
<path d="M3170 2527 c0 -7 9 -13 19 -13 15 0 17 3 9 13 -6 7 -14 13 -19 13 -5
0 -9 -6 -9 -13z"/>
<path d="M2330 2510 c0 -5 5 -10 10 -10 6 0 10 5 10 10 0 6 -4 10 -10 10 -5 0
-10 -4 -10 -10z"/>
<path d="M2110 2500 c0 -5 5 -10 10 -10 6 0 10 5 10 10 0 6 -4 10 -10 10 -5 0
-10 -4 -10 -10z"/>
<path d="M2138 2473 c7 -3 16 -2 19 1 4 3 -2 6 -13 5 -11 0 -14 -3 -6 -6z"/>
<path d="M2170 2454 c0 -8 5 -12 10 -9 6 3 10 10 10 16 0 5 -4 9 -10 9 -5 0
-10 -7 -10 -16z"/>
<path d="M2280 2445 c0 -14 2 -25 4 -25 2 0 6 11 8 25 3 14 1 25 -3 25 -5 0
-9 -11 -9 -25z"/>
<path d="M2410 2460 c0 -6 7 -10 15 -10 8 0 15 2 15 4 0 2 -7 6 -15 10 -8 3
-15 1 -15 -4z"/>
<path d="M3087 2456 c-6 -15 1 -26 15 -26 11 0 10 27 -1 34 -5 3 -11 0 -14 -8z"/>
<path d="M3141 2465 c1 -19 18 -51 18 -35 0 8 -4 22 -9 30 -5 8 -9 11 -9 5z"/>
<path d="M2200 2450 c0 -5 5 -10 10 -10 6 0 10 5 10 10 0 6 -4 10 -10 10 -5 0
-10 -4 -10 -10z"/>
<path d="M2310 2434 c0 -8 5 -12 10 -9 6 3 10 10 10 16 0 5 -4 9 -10 9 -5 0
-10 -7 -10 -16z"/>
<path d="M2227 2433 c-11 -10 -8 -41 4 -45 6 -2 12 -17 12 -32 0 -17 2 -23 7
-16 4 7 15 10 25 7 9 -4 14 -10 12 -14 -3 -5 15 -8 38 -8 81 0 80 36 -1 53
-28 6 -43 15 -52 35 -13 26 -31 34 -45 20z"/>
<path d="M1987 2411 c-4 -17 -3 -21 5 -13 5 5 8 16 6 23 -3 8 -7 3 -11 -10z"/>
<path d="M2165 2409 c-4 -6 -5 -12 -2 -15 2 -3 7 2 10 11 7 17 1 20 -8 4z"/>
<path d="M2190 2405 c0 -8 4 -15 10 -15 5 0 7 7 4 15 -4 8 -8 15 -10 15 -2 0
-4 -7 -4 -15z"/>
<path d="M2327 2406 c-4 -10 -1 -13 9 -9 15 6 19 23 5 23 -5 0 -11 -7 -14 -14z"/>
<path d="M2980 2405 c-11 -13 -10 -14 4 -9 9 3 16 10 16 15 0 13 -6 11 -20 -6z"/>
<path d="M3016 2399 c-19 -19 -19 -19 5 -20 23 0 23 -1 4 -10 -17 -8 -17 -9 5
-4 14 2 31 5 38 5 6 0 12 4 12 8 0 5 -10 8 -22 8 -17 -1 -22 4 -20 17 4 21 2
21 -22 -4z"/>
<path d="M2290 2400 c0 -5 5 -10 11 -10 5 0 7 5 4 10 -3 6 -8 10 -11 10 -2 0
-4 -4 -4 -10z"/>
<path d="M2942 2394 c-11 -12 -10 -14 3 -14 9 0 13 -4 10 -10 -3 -5 1 -10 9
-10 9 0 16 5 16 10 0 6 -4 10 -9 10 -5 0 -11 6 -13 14 -3 12 -5 12 -16 0z"/>
<path d="M2890 2360 c8 -5 22 -9 30 -9 10 0 8 3 -5 9 -27 12 -43 12 -25 0z"/>
<path d="M2475 2350 c-9 -15 17 -22 61 -17 36 3 36 4 -11 6 -41 3 -46 4 -25
11 23 7 23 8 3 9 -12 1 -25 -4 -28 -9z"/>
<path d="M2768 2353 c12 -2 30 -2 40 0 9 3 -1 5 -23 4 -22 0 -30 -2 -17 -4z"/>
<path d="M2695 2341 c31 -9 102 -14 94 -7 -2 2 -31 6 -64 9 -39 4 -50 3 -30
-2z"/>
<path d="M1992 2320 c0 -14 2 -19 5 -12 2 6 2 18 0 25 -3 6 -5 1 -5 -13z"/>
<path d="M2390 2323 c-13 -15 -12 -16 4 -10 10 4 20 7 22 7 2 0 4 5 4 10 0 15
-13 12 -30 -7z"/>
<path d="M2050 2254 c0 -8 5 -12 10 -9 6 4 8 11 5 16 -9 14 -15 11 -15 -7z"/>
<path d="M2298 2143 c7 -3 16 -2 19 1 4 3 -2 6 -13 5 -11 0 -14 -3 -6 -6z"/>
<path d="M2415 2130 c3 -5 13 -10 21 -10 8 0 14 5 14 10 0 6 -9 10 -21 10 -11
0 -17 -4 -14 -10z"/>
<path d="M2488 2133 c7 -3 16 -2 19 1 4 3 -2 6 -13 5 -11 0 -14 -3 -6 -6z"/>
<path d="M3240 2361 c0 -15 6 -21 21 -21 25 0 22 33 -4 38 -12 2 -17 -3 -17
-17z"/>
<path d="M3467 2364 c-14 -15 -6 -34 14 -34 14 0 19 5 17 17 -3 18 -20 27 -31
17z"/>
<path d="M3296 2332 c-10 -16 4 -40 27 -46 59 -16 127 0 127 29 0 12 -14 15
-59 15 -33 0 -66 3 -74 6 -8 3 -18 1 -21 -4z m134 -21 c0 -15 -30 -21 -71 -15
-62 10 -56 24 10 24 34 0 61 -4 61 -9z"/>
<path d="M2865 2151 c-4 -8 19 -41 30 -41 2 0 11 7 19 16 20 19 11 40 -10 23
-10 -8 -14 -8 -14 0 0 13 -17 15 -25 2z"/>
<path d="M3060 2126 c0 -7 7 -19 15 -26 12 -10 18 -10 30 0 21 18 19 32 -5 25
-11 -4 -20 -2 -20 4 0 6 -4 11 -10 11 -5 0 -10 -6 -10 -14z"/>
<path d="M2930 2096 c0 -18 50 -30 90 -21 45 10 37 28 -9 20 -23 -4 -48 -2
-60 5 -17 8 -21 8 -21 -4z"/>
</g>
</svg>
